<?xml version="1.0" standalone="no"?>
<!DOCTYPE svg PUBLIC "-//W3C//DTD SVG 20010904//EN"
 "http://www.w3.org/TR/2001/REC-SVG-20010904/DTD/svg10.dtd">
<svg version="1.0" xmlns="http://www.w3.org/2000/svg"
 width="407.000000pt" height="407.000000pt" viewBox="0 0 407.000000 407.000000"
 preserveAspectRatio="xMidYMid meet">
<metadata>
Created by potrace 1.14, written by Peter Selinger 2001-2017
</metadata>
<g transform="translate(0.000000,407.000000) scale(0.100000,-0.100000)"
fill="#000000" stroke="none">
<path d="M650 2038 l0 -2033 858 1 c471 0 882 4 912 8 331 46 633 228 809 489
59 88 90 149 126 247 31 87 32 89 49 195 13 77 15 333 3 400 -3 17 -10 59 -16
95 -49 299 -186 550 -381 696 -38 28 -144 80 -185 90 -14 3 -25 9 -25 13 0 3
25 19 55 35 95 49 189 154 253 282 32 64 78 196 87 252 3 17 8 47 11 65 7 35
7 250 0 282 -2 11 -7 40 -11 65 -42 274 -224 539 -470 686 -104 63 -254 117
-415 150 -19 4 -401 9 -847 11 l-813 4 0 -2033z m1543 1488 c162 -39 305 -143
363 -264 52 -109 67 -255 39 -386 -43 -204 -184 -337 -426 -403 -13 -4 -225
-8 -470 -10 l-445 -4 1 543 c1 299 3 543 4 543 0 0 196 0 434 -1 362 -1 443
-4 500 -18z m142 -1589 c136 -36 226 -88 330 -192 67 -67 89 -97 132 -185 63
-126 81 -208 77 -343 -3 -105 -19 -180 -58 -276 -89 -220 -301 -384 -527 -407
-49 -5 -911 -9 -1014 -5 -21 1 -21 3 -21 710 l0 709 531 -3 c291 -1 539 -5
550 -8z"/>
</g>
</svg>
